<svg xmlns="http://www.w3.org/2000/svg" xmlns:xlink="http://www.w3.org/1999/xlink" width="1024" zoomAndPan="magnify" viewBox="0 0 768 767.999994" height="1024" preserveAspectRatio="xMidYMid meet" version="1.0"><defs><clipPath id="b049584251"><path d="M 13.003906 68 L 456 68 L 456 676 L 13.003906 676 Z M 13.003906 68 " clip-rule="nonzero"/></clipPath><clipPath id="5bbec5c662"><path d="M 239 11.609375 L 749 11.609375 L 749 558 L 239 558 Z M 239 11.609375 " clip-rule="nonzero"/></clipPath><clipPath id="642618e3ba"><path d="M 295 582 L 511 582 L 511 618.828125 L 295 618.828125 Z M 295 582 " clip-rule="nonzero"/></clipPath><clipPath id="55e34615b5"><path d="M 295 582 L 310 582 L 310 618.828125 L 295 618.828125 Z M 295 582 " clip-rule="nonzero"/></clipPath><clipPath id="845f8363e9"><path d="M 147.625 232 L 353 232 L 353 269 L 147.625 269 Z M 147.625 232 " clip-rule="nonzero"/></clipPath><clipPath id="5a6b710c79"><path d="M 380 147.828125 L 439 147.828125 L 439 209 L 380 209 Z M 380 147.828125 " clip-rule="nonzero"/></clipPath></defs><path fill="#f5b01a" d="M 477.882812 595.808594 C 587.40625 583.859375 690.679688 526.488281 747.589844 430.722656 C 720.683594 667.523438 457.144531 817.222656 242.117188 725.277344 C 222.273438 716.792969 205.25 702.820312 193.519531 684.707031 C 145.179688 610.140625 129.28125 515.234375 152.085938 429.109375 C 217.347656 539.757812 349.949219 607.621094 477.882812 595.808594 " fill-opacity="1" fill-rule="nonzero"/><g clip-path="url(#b049584251)"><path fill="#8d2576" d="M 148.105469 359.667969 C 103.6875 460.484375 101.738281 578.605469 156.222656 675.777344 C -35.402344 534.082031 -33.277344 231.007812 153.867188 90.75 C 171.132812 77.8125 191.746094 70.0625 213.300781 68.949219 C 302.042969 64.367188 392.183594 98.066406 455.371094 160.871094 C 326.910156 162.066406 201.84375 242.964844 148.105469 359.667969 " fill-opacity="1" fill-rule="nonzero"/></g><g clip-path="url(#5bbec5c662)"><path fill="#ee342f" d="M 517.308594 191.828125 C 452.515625 103.007812 351.046875 42.613281 239.925781 40.773438 C 454.746094 -55.066406 718.925781 100.316406 747.734375 329.96875 C 750.410156 351.324219 746.90625 373.003906 737.265625 392.238281 C 697.113281 472.308594 622.683594 534.445312 535.730469 557.445312 C 599.574219 441.328125 591.636719 299.449219 517.308594 191.828125 " fill-opacity="1" fill-rule="nonzero"/></g><path fill="#cfcfcf" d="M 495.105469 593.046875 C 466.609375 593.046875 470.285156 596.722656 470.285156 572.808594 C 470.285156 569.128906 472.125 567.289062 475.800781 567.289062 C 504.300781 567.289062 501.542969 563.613281 501.542969 587.527344 C 501.542969 590.285156 498.785156 593.046875 495.105469 593.046875 Z M 495.105469 593.046875 " fill-opacity="1" fill-rule="evenodd"/><path fill="#cfcfcf" d="M 330.558594 593.046875 C 302.0625 593.046875 304.820312 596.722656 304.820312 572.808594 C 304.820312 569.128906 307.578125 567.289062 310.335938 567.289062 C 339.75 567.289062 336.074219 563.613281 336.074219 587.527344 C 336.074219 590.285156 333.316406 593.046875 330.558594 593.046875 Z M 330.558594 593.046875 " fill-opacity="1" fill-rule="evenodd"/><path fill="#cfcfcf" d="M 460.175781 593.046875 L 346.1875 593.046875 C 338.832031 593.046875 338.832031 582.007812 346.1875 582.007812 C 348.023438 582.007812 353.539062 573.730469 353.539062 559.011719 C 353.539062 545.214844 348.023438 536.9375 346.1875 536.9375 C 338.832031 536.9375 338.832031 525.898438 346.1875 525.898438 L 460.175781 525.898438 C 467.527344 525.898438 467.527344 536.9375 460.175781 536.9375 C 458.335938 536.9375 452.820312 545.214844 452.820312 559.011719 C 452.820312 573.730469 458.335938 582.007812 460.175781 582.007812 C 467.527344 582.007812 467.527344 593.046875 460.175781 593.046875 Z M 460.175781 593.046875 " fill-opacity="1" fill-rule="evenodd"/><path fill="#e0e0e0" d="M 353.539062 565.449219 C 353.539062 563.613281 353.539062 561.773438 353.539062 559.011719 C 353.539062 557.171875 353.539062 555.332031 353.539062 553.492188 L 452.820312 553.492188 C 452.820312 555.332031 452.820312 557.171875 452.820312 559.011719 C 452.820312 561.773438 452.820312 563.613281 452.820312 565.449219 Z M 353.539062 565.449219 " fill-opacity="1" fill-rule="evenodd"/><path fill="#cfcfcf" d="M 488.671875 498.304688 C 485.914062 498.304688 483.15625 495.546875 483.15625 492.785156 L 483.15625 409.082031 C 483.15625 405.40625 485.914062 403.566406 488.671875 403.566406 L 610.015625 403.566406 C 620.125 403.566406 615.53125 424.71875 609.09375 431.160156 C 603.578125 437.597656 596.226562 439.4375 586.113281 439.4375 C 526.359375 439.4375 494.1875 494.625 493.269531 495.546875 C 492.347656 497.386719 490.511719 498.304688 488.671875 498.304688 Z M 488.671875 498.304688 " fill-opacity="1" fill-rule="evenodd"/><path fill="#cfcfcf" d="M 317.6875 501.984375 C 315.851562 501.984375 314.929688 501.0625 314.011719 501.0625 L 217.488281 425.640625 C 210.136719 415.523438 212.894531 403.566406 228.519531 403.566406 L 317.6875 403.566406 C 320.445312 403.566406 323.203125 405.40625 323.203125 409.082031 L 323.203125 496.464844 C 323.203125 499.226562 320.445312 501.984375 317.6875 501.984375 Z M 317.6875 501.984375 " fill-opacity="1" fill-rule="evenodd"/><path fill="#6e6e6e" d="M 482.238281 536.9375 L 324.125 536.9375 C 317.6875 536.9375 312.171875 531.417969 312.171875 524.058594 L 312.171875 399.886719 C 312.171875 393.445312 317.6875 387.929688 324.125 387.929688 L 482.238281 387.929688 C 488.671875 387.929688 494.1875 393.445312 494.1875 399.886719 L 494.1875 524.058594 C 494.1875 531.417969 488.671875 536.9375 482.238281 536.9375 Z M 482.238281 536.9375 " fill-opacity="1" fill-rule="evenodd"/><g clip-path="url(#642618e3ba)"><path fill="#6e6e6e" d="M 505.21875 618.800781 L 301.140625 618.800781 C 297.464844 618.800781 295.625 616.039062 295.625 613.28125 L 295.625 587.527344 C 295.625 584.765625 297.464844 582.007812 301.140625 582.007812 L 505.21875 582.007812 C 508.894531 582.007812 510.734375 584.765625 510.734375 587.527344 L 510.734375 613.28125 C 510.734375 616.039062 508.894531 618.800781 505.21875 618.800781 Z M 505.21875 618.800781 " fill-opacity="1" fill-rule="evenodd"/></g><path fill="#bcc5d4" d="M 338.832031 377.808594 C 333.316406 377.808594 331.476562 371.371094 335.15625 368.613281 L 351.703125 354.816406 C 357.21875 350.214844 364.570312 359.414062 359.054688 364.011719 C 354.460938 367.691406 342.507812 377.808594 338.832031 377.808594 Z M 338.832031 377.808594 " fill-opacity="1" fill-rule="evenodd"/><path fill="#bcc5d4" d="M 347.105469 352.976562 L 323.203125 352.976562 C 315.851562 352.976562 315.851562 341.019531 323.203125 341.019531 L 347.105469 341.019531 C 354.460938 341.019531 354.460938 352.976562 347.105469 352.976562 Z M 347.105469 352.976562 " fill-opacity="1" fill-rule="evenodd"/><path fill="#bcc5d4" d="M 465.691406 377.808594 C 462.011719 377.808594 450.0625 367.691406 445.464844 364.011719 C 439.949219 359.414062 447.304688 350.214844 452.820312 354.816406 L 469.367188 368.613281 C 473.042969 371.371094 471.207031 377.808594 465.691406 377.808594 Z M 465.691406 377.808594 " fill-opacity="1" fill-rule="evenodd"/><path fill="#bcc5d4" d="M 481.316406 352.976562 L 457.417969 352.976562 C 450.0625 352.976562 450.0625 341.019531 457.417969 341.019531 L 481.316406 341.019531 C 488.671875 341.019531 488.671875 352.976562 481.316406 352.976562 Z M 481.316406 352.976562 " fill-opacity="1" fill-rule="evenodd"/><path fill="#bfbfbf" d="M 217.488281 425.640625 L 312.171875 499.226562 L 312.171875 491.867188 L 225.761719 425.640625 C 219.328125 415.523438 222.085938 403.566406 236.792969 403.566406 L 228.519531 403.566406 C 212.894531 403.566406 210.136719 415.523438 217.488281 425.640625 Z M 217.488281 425.640625 " fill-opacity="1" fill-rule="evenodd"/><path fill="#616161" d="M 312.171875 403.566406 L 312.171875 524.058594 C 312.171875 531.417969 317.6875 536.9375 324.125 536.9375 L 333.316406 536.9375 C 325.960938 536.9375 320.445312 531.417969 320.445312 524.058594 L 320.445312 399.886719 C 320.445312 393.445312 325.960938 387.929688 333.316406 387.929688 L 324.125 387.929688 C 317.6875 387.929688 312.171875 393.445312 312.171875 399.886719 Z M 312.171875 403.566406 " fill-opacity="1" fill-rule="evenodd"/><path fill="#bfbfbf" d="M 354.460938 536.9375 L 346.1875 536.9375 C 348.023438 536.9375 351.703125 542.457031 353.539062 553.492188 L 361.8125 553.492188 C 360.894531 542.457031 356.296875 536.9375 354.460938 536.9375 Z M 354.460938 536.9375 " fill-opacity="1" fill-rule="evenodd"/><path fill="#cfcfcf" d="M 361.8125 553.492188 L 353.539062 553.492188 C 353.539062 555.332031 353.539062 557.171875 353.539062 559.011719 C 353.539062 561.773438 353.539062 563.613281 353.539062 565.449219 L 361.8125 565.449219 C 361.8125 563.613281 362.734375 561.773438 362.734375 559.011719 C 362.734375 557.171875 361.8125 555.332031 361.8125 553.492188 Z M 361.8125 553.492188 " fill-opacity="1" fill-rule="evenodd"/><path fill="#bfbfbf" d="M 354.460938 582.007812 Z M 361.8125 565.449219 L 353.539062 565.449219 C 352.621094 575.570312 348.023438 582.007812 346.1875 582.007812 L 354.460938 582.007812 C 356.296875 582.007812 360.894531 575.570312 361.8125 565.449219 Z M 361.8125 565.449219 " fill-opacity="1" fill-rule="evenodd"/><g clip-path="url(#55e34615b5)"><path fill="#616161" d="M 303.898438 613.28125 L 303.898438 587.527344 C 303.898438 586.605469 303.898438 584.765625 304.820312 583.847656 C 305.738281 582.925781 307.578125 582.007812 309.414062 582.007812 L 301.140625 582.007812 C 297.464844 582.007812 295.625 584.765625 295.625 587.527344 L 295.625 613.28125 C 295.625 616.039062 297.464844 618.800781 301.140625 618.800781 L 309.414062 618.800781 C 306.65625 618.800781 303.898438 616.039062 303.898438 613.28125 Z M 303.898438 613.28125 " fill-opacity="1" fill-rule="evenodd"/></g><g clip-path="url(#845f8363e9)"><path fill="#c77d70" d="M 148.546875 267.433594 C 149.464844 268.351562 150.382812 268.351562 151.304688 268.351562 L 349.863281 268.351562 C 351.703125 268.351562 352.621094 266.511719 352.621094 264.671875 L 352.621094 236.160156 C 352.621094 234.320312 351.703125 232.480469 349.863281 232.480469 L 151.304688 232.480469 C 149.464844 232.480469 147.625 234.320312 147.625 236.160156 L 147.625 264.671875 C 147.625 265.59375 148.546875 266.511719 148.546875 267.433594 Z M 148.546875 267.433594 " fill-opacity="1" fill-rule="evenodd"/></g><path fill="#c47467" d="M 341.589844 268.351562 L 349.863281 268.351562 C 351.703125 268.351562 352.621094 266.511719 352.621094 264.671875 L 352.621094 236.160156 C 352.621094 234.320312 351.703125 232.480469 349.863281 232.480469 L 341.589844 232.480469 Z M 341.589844 268.351562 " fill-opacity="1" fill-rule="evenodd"/><path fill="#bcc5d4" d="M 383.875 318.941406 C 384.796875 319.863281 385.714844 319.863281 386.632812 319.863281 L 421.566406 319.863281 C 423.402344 319.863281 425.242188 318.941406 425.242188 317.101562 L 425.242188 292.269531 C 425.242188 290.429688 423.402344 288.589844 421.566406 288.589844 L 386.632812 288.589844 C 384.796875 288.589844 382.957031 290.429688 382.957031 292.269531 L 382.957031 317.101562 C 382.957031 318.023438 382.957031 318.941406 383.875 318.941406 Z M 383.875 318.941406 " fill-opacity="1" fill-rule="evenodd"/><path fill="#b3bcc9" d="M 383.875 318.941406 C 384.796875 319.863281 385.714844 319.863281 386.632812 319.863281 L 421.566406 319.863281 C 423.402344 319.863281 425.242188 318.941406 425.242188 317.101562 L 425.242188 308.824219 L 382.957031 308.824219 L 382.957031 317.101562 C 382.957031 318.023438 382.957031 318.941406 383.875 318.941406 Z M 383.875 318.941406 " fill-opacity="1" fill-rule="evenodd"/><path fill="#bcc5d4" d="M 383.875 318.941406 C 384.796875 319.863281 385.714844 319.863281 386.632812 319.863281 L 421.566406 319.863281 C 423.402344 319.863281 425.242188 318.941406 425.242188 317.101562 L 425.242188 313.421875 L 382.957031 313.421875 L 382.957031 317.101562 C 382.957031 318.023438 382.957031 318.941406 383.875 318.941406 Z M 383.875 318.941406 " fill-opacity="1" fill-rule="evenodd"/><path fill="#a8b6c6" d="M 371.925781 352.054688 C 371.925781 352.976562 372.84375 352.976562 373.765625 352.976562 L 434.433594 352.976562 C 436.273438 352.976562 437.191406 351.136719 437.191406 349.296875 L 437.191406 317.101562 C 437.191406 315.261719 436.273438 313.421875 434.433594 313.421875 L 373.765625 313.421875 C 371.925781 313.421875 370.085938 315.261719 370.085938 317.101562 L 370.085938 349.296875 C 370.085938 350.214844 371.007812 351.136719 371.925781 352.054688 Z M 371.925781 352.054688 " fill-opacity="1" fill-rule="evenodd"/><g clip-path="url(#5a6b710c79)"><path fill="#97aabc" d="M 381.117188 207.644531 C 382.039062 208.566406 382.957031 208.566406 383.875 208.566406 L 435.355469 208.566406 C 438.113281 208.566406 439.949219 205.804688 438.113281 203.964844 L 405.9375 149.699219 C 405.019531 148.777344 404.097656 147.859375 403.179688 147.859375 L 383.875 147.859375 C 382.039062 147.859375 380.199219 149.699219 380.199219 151.539062 L 380.199219 205.804688 C 380.199219 206.726562 381.117188 207.644531 381.117188 207.644531 Z M 381.117188 207.644531 " fill-opacity="1" fill-rule="evenodd"/></g><path fill="#8b9cac" d="M 381.117188 207.644531 C 382.039062 208.566406 382.957031 208.566406 383.875 208.566406 L 435.355469 208.566406 C 438.113281 208.566406 439.949219 205.804688 438.113281 203.964844 L 434.433594 197.527344 L 380.199219 197.527344 L 380.199219 205.804688 C 380.199219 206.726562 381.117188 207.644531 381.117188 207.644531 Z M 381.117188 207.644531 " fill-opacity="1" fill-rule="evenodd"/><path fill="#ba5f4e" d="M 347.105469 286.75 C 348.023438 287.667969 348.945312 287.667969 349.863281 287.667969 L 371.925781 287.667969 C 373.765625 287.667969 375.601562 285.828125 375.601562 283.988281 L 375.601562 216.84375 C 375.601562 215.003906 373.765625 213.164062 371.925781 213.164062 L 349.863281 213.164062 C 348.023438 213.164062 346.1875 215.003906 346.1875 216.84375 L 346.1875 283.988281 C 346.1875 284.910156 346.1875 285.828125 347.105469 286.75 Z M 347.105469 286.75 " fill-opacity="1" fill-rule="evenodd"/><path fill="#aa5849" d="M 364.570312 287.667969 L 371.925781 287.667969 C 373.765625 287.667969 375.601562 285.828125 375.601562 283.988281 L 375.601562 216.84375 C 375.601562 215.003906 373.765625 213.164062 371.925781 213.164062 L 364.570312 213.164062 Z M 364.570312 287.667969 " fill-opacity="1" fill-rule="evenodd"/><path fill="#a8b6c6" d="M 370.085938 294.109375 C 371.007812 295.027344 371.007812 295.027344 371.925781 295.027344 L 435.355469 295.027344 C 438.113281 295.027344 439.03125 294.109375 439.03125 292.269531 L 439.03125 205.804688 C 439.03125 203.964844 438.113281 202.125 435.355469 202.125 L 371.925781 202.125 C 370.085938 202.125 369.167969 203.964844 369.167969 205.804688 L 369.167969 292.269531 C 369.167969 293.1875 369.167969 293.1875 370.085938 294.109375 Z M 370.085938 294.109375 " fill-opacity="1" fill-rule="evenodd"/></svg>